<mxfile host="app.diagrams.net" modified="2023-12-20T09:23:26.709Z" agent="Mozilla/5.0 (Windows NT 10.0; Win64; x64; rv:120.0) Gecko/20100101 Firefox/120.0" etag="vZMvwinoEBFbmml9K6t8" version="22.1.11" type="github">
  <diagram name="第 1 页" id="7eMSPlvP4oVSN_WGFJ_u">
    <mxGraphModel dx="472" dy="753" grid="1" gridSize="10" guides="1" tooltips="1" connect="1" arrows="1" fold="1" page="1" pageScale="1" pageWidth="827" pageHeight="1169" math="0" shadow="0">
      <root>
        <mxCell id="0" />
        <mxCell id="1" parent="0" />
        <mxCell id="I6KHFlvKt-9jvYjdkDqK-11" style="edgeStyle=orthogonalEdgeStyle;rounded=0;orthogonalLoop=1;jettySize=auto;html=1;entryX=0.5;entryY=1;entryDx=0;entryDy=0;exitX=1;exitY=0.25;exitDx=0;exitDy=0;" edge="1" parent="1" source="I6KHFlvKt-9jvYjdkDqK-4" target="I6KHFlvKt-9jvYjdkDqK-6">
          <mxGeometry relative="1" as="geometry" />
        </mxCell>
        <mxCell id="I6KHFlvKt-9jvYjdkDqK-12" value="推送告警" style="edgeLabel;html=1;align=center;verticalAlign=middle;resizable=0;points=[];fontStyle=1" vertex="1" connectable="0" parent="I6KHFlvKt-9jvYjdkDqK-11">
          <mxGeometry x="-0.07" y="4" relative="1" as="geometry">
            <mxPoint x="-54" y="-3" as="offset" />
          </mxGeometry>
        </mxCell>
        <mxCell id="I6KHFlvKt-9jvYjdkDqK-18" style="edgeStyle=orthogonalEdgeStyle;rounded=0;orthogonalLoop=1;jettySize=auto;html=1;entryX=0.5;entryY=1;entryDx=0;entryDy=0;" edge="1" parent="1" source="I6KHFlvKt-9jvYjdkDqK-4" target="I6KHFlvKt-9jvYjdkDqK-8">
          <mxGeometry relative="1" as="geometry" />
        </mxCell>
        <mxCell id="I6KHFlvKt-9jvYjdkDqK-43" style="edgeStyle=orthogonalEdgeStyle;rounded=0;orthogonalLoop=1;jettySize=auto;html=1;entryX=0.5;entryY=0;entryDx=0;entryDy=0;" edge="1" parent="1" source="I6KHFlvKt-9jvYjdkDqK-4" target="I6KHFlvKt-9jvYjdkDqK-20">
          <mxGeometry relative="1" as="geometry" />
        </mxCell>
        <mxCell id="I6KHFlvKt-9jvYjdkDqK-44" value="&lt;div&gt;拉取&lt;/div&gt;&lt;div&gt;metrics&lt;br&gt;&lt;/div&gt;" style="edgeLabel;html=1;align=center;verticalAlign=middle;resizable=0;points=[];fontStyle=1" vertex="1" connectable="0" parent="I6KHFlvKt-9jvYjdkDqK-43">
          <mxGeometry x="-0.2456" y="2" relative="1" as="geometry">
            <mxPoint as="offset" />
          </mxGeometry>
        </mxCell>
        <mxCell id="I6KHFlvKt-9jvYjdkDqK-46" style="edgeStyle=orthogonalEdgeStyle;rounded=0;orthogonalLoop=1;jettySize=auto;html=1;entryX=0.5;entryY=1;entryDx=0;entryDy=0;" edge="1" parent="1" source="I6KHFlvKt-9jvYjdkDqK-4" target="I6KHFlvKt-9jvYjdkDqK-5">
          <mxGeometry relative="1" as="geometry" />
        </mxCell>
        <mxCell id="I6KHFlvKt-9jvYjdkDqK-47" value="发现目标" style="edgeLabel;html=1;align=center;verticalAlign=middle;resizable=0;points=[];fontStyle=1" vertex="1" connectable="0" parent="I6KHFlvKt-9jvYjdkDqK-46">
          <mxGeometry x="0.0333" y="3" relative="1" as="geometry">
            <mxPoint as="offset" />
          </mxGeometry>
        </mxCell>
        <mxCell id="I6KHFlvKt-9jvYjdkDqK-4" value="Prometheus" style="rounded=0;whiteSpace=wrap;html=1;fillColor=#f8cecc;strokeColor=#b85450;fontStyle=1" vertex="1" parent="1">
          <mxGeometry x="310" y="320" width="130" height="70" as="geometry" />
        </mxCell>
        <mxCell id="I6KHFlvKt-9jvYjdkDqK-5" value="&lt;div&gt;服务发现&lt;/div&gt;&lt;div&gt;【sevice monitor】&lt;br&gt;&lt;/div&gt;" style="rounded=0;whiteSpace=wrap;html=1;fillColor=#dae8fc;strokeColor=#6c8ebf;fontStyle=1" vertex="1" parent="1">
          <mxGeometry x="315" y="200" width="120" height="60" as="geometry" />
        </mxCell>
        <mxCell id="I6KHFlvKt-9jvYjdkDqK-38" style="rounded=0;orthogonalLoop=1;jettySize=auto;html=1;exitX=1;exitY=0.75;exitDx=0;exitDy=0;entryX=0;entryY=0.5;entryDx=0;entryDy=0;" edge="1" parent="1" source="I6KHFlvKt-9jvYjdkDqK-6" target="I6KHFlvKt-9jvYjdkDqK-36">
          <mxGeometry relative="1" as="geometry" />
        </mxCell>
        <mxCell id="I6KHFlvKt-9jvYjdkDqK-39" style="edgeStyle=orthogonalEdgeStyle;rounded=0;orthogonalLoop=1;jettySize=auto;html=1;" edge="1" parent="1" source="I6KHFlvKt-9jvYjdkDqK-6" target="I6KHFlvKt-9jvYjdkDqK-35">
          <mxGeometry relative="1" as="geometry" />
        </mxCell>
        <mxCell id="I6KHFlvKt-9jvYjdkDqK-40" style="orthogonalLoop=1;jettySize=auto;html=1;exitX=1;exitY=0.25;exitDx=0;exitDy=0;entryX=0;entryY=0.5;entryDx=0;entryDy=0;rounded=0;" edge="1" parent="1" source="I6KHFlvKt-9jvYjdkDqK-6" target="I6KHFlvKt-9jvYjdkDqK-34">
          <mxGeometry relative="1" as="geometry" />
        </mxCell>
        <mxCell id="I6KHFlvKt-9jvYjdkDqK-6" value="Alertmanager" style="rounded=0;whiteSpace=wrap;html=1;fillColor=#f8cecc;strokeColor=#b85450;fontStyle=1" vertex="1" parent="1">
          <mxGeometry x="490" y="200" width="120" height="60" as="geometry" />
        </mxCell>
        <mxCell id="I6KHFlvKt-9jvYjdkDqK-8" value="Pushgateway" style="rounded=0;whiteSpace=wrap;html=1;fillColor=#f8cecc;strokeColor=#b85450;fontStyle=1" vertex="1" parent="1">
          <mxGeometry x="149" y="261" width="120" height="60" as="geometry" />
        </mxCell>
        <mxCell id="I6KHFlvKt-9jvYjdkDqK-10" value="&lt;div&gt;Prometheus&lt;/div&gt;&lt;div&gt;目标&lt;br&gt;&lt;/div&gt;" style="text;html=1;strokeColor=none;fillColor=none;align=center;verticalAlign=middle;whiteSpace=wrap;rounded=0;fontStyle=1" vertex="1" parent="1">
          <mxGeometry x="181" y="476" width="60" height="30" as="geometry" />
        </mxCell>
        <mxCell id="I6KHFlvKt-9jvYjdkDqK-14" value="数据可视化和导出" style="text;html=1;strokeColor=none;fillColor=none;align=center;verticalAlign=middle;whiteSpace=wrap;rounded=0;fontStyle=1" vertex="1" parent="1">
          <mxGeometry x="515" y="350" width="70" height="30" as="geometry" />
        </mxCell>
        <mxCell id="I6KHFlvKt-9jvYjdkDqK-28" style="edgeStyle=orthogonalEdgeStyle;rounded=0;orthogonalLoop=1;jettySize=auto;html=1;entryX=1;entryY=0.75;entryDx=0;entryDy=0;" edge="1" parent="1" source="I6KHFlvKt-9jvYjdkDqK-15" target="I6KHFlvKt-9jvYjdkDqK-4">
          <mxGeometry relative="1" as="geometry" />
        </mxCell>
        <mxCell id="I6KHFlvKt-9jvYjdkDqK-15" value="&lt;div&gt;Prometheus&lt;/div&gt;&lt;div&gt;web UI&lt;br&gt;&lt;/div&gt;" style="rounded=0;whiteSpace=wrap;html=1;fillColor=#f8cecc;strokeColor=#b85450;fontStyle=1" vertex="1" parent="1">
          <mxGeometry x="490" y="380" width="120" height="40" as="geometry" />
        </mxCell>
        <mxCell id="I6KHFlvKt-9jvYjdkDqK-29" style="edgeStyle=orthogonalEdgeStyle;rounded=0;orthogonalLoop=1;jettySize=auto;html=1;entryX=1;entryY=0.75;entryDx=0;entryDy=0;" edge="1" parent="1" source="I6KHFlvKt-9jvYjdkDqK-16" target="I6KHFlvKt-9jvYjdkDqK-4">
          <mxGeometry relative="1" as="geometry" />
        </mxCell>
        <mxCell id="I6KHFlvKt-9jvYjdkDqK-16" value="Grafana" style="rounded=0;whiteSpace=wrap;html=1;fillColor=#fff2cc;strokeColor=#d6b656;fontStyle=1" vertex="1" parent="1">
          <mxGeometry x="490" y="425" width="120" height="40" as="geometry" />
        </mxCell>
        <mxCell id="I6KHFlvKt-9jvYjdkDqK-30" style="edgeStyle=orthogonalEdgeStyle;rounded=0;orthogonalLoop=1;jettySize=auto;html=1;entryX=1;entryY=0.75;entryDx=0;entryDy=0;" edge="1" parent="1" source="I6KHFlvKt-9jvYjdkDqK-17" target="I6KHFlvKt-9jvYjdkDqK-4">
          <mxGeometry relative="1" as="geometry" />
        </mxCell>
        <mxCell id="I6KHFlvKt-9jvYjdkDqK-31" value="PromQL" style="edgeLabel;html=1;align=center;verticalAlign=middle;resizable=0;points=[];fontStyle=1" vertex="1" connectable="0" parent="I6KHFlvKt-9jvYjdkDqK-30">
          <mxGeometry x="0.6129" y="1" relative="1" as="geometry">
            <mxPoint x="7" y="-14" as="offset" />
          </mxGeometry>
        </mxCell>
        <mxCell id="I6KHFlvKt-9jvYjdkDqK-17" value="API客户端" style="rounded=0;whiteSpace=wrap;html=1;fontStyle=1" vertex="1" parent="1">
          <mxGeometry x="490" y="471" width="120" height="29" as="geometry" />
        </mxCell>
        <mxCell id="I6KHFlvKt-9jvYjdkDqK-23" value="" style="group;fontStyle=1" vertex="1" connectable="0" parent="1">
          <mxGeometry x="172" y="420" width="82" height="36" as="geometry" />
        </mxCell>
        <mxCell id="I6KHFlvKt-9jvYjdkDqK-20" value="" style="rounded=1;whiteSpace=wrap;html=1;movable=1;resizable=1;rotatable=1;deletable=1;editable=1;locked=0;connectable=1;" vertex="1" parent="I6KHFlvKt-9jvYjdkDqK-23">
          <mxGeometry width="75" height="30" as="geometry" />
        </mxCell>
        <mxCell id="I6KHFlvKt-9jvYjdkDqK-21" value="" style="rounded=1;whiteSpace=wrap;html=1;movable=1;resizable=1;rotatable=1;deletable=1;editable=1;locked=0;connectable=1;" vertex="1" parent="I6KHFlvKt-9jvYjdkDqK-23">
          <mxGeometry x="3" y="3" width="75" height="30" as="geometry" />
        </mxCell>
        <mxCell id="I6KHFlvKt-9jvYjdkDqK-22" value="&lt;div&gt;&lt;b&gt;Jobs/&lt;/b&gt;&lt;/div&gt;&lt;div&gt;&lt;b&gt;exporters&lt;br&gt;&lt;/b&gt;&lt;/div&gt;" style="rounded=1;whiteSpace=wrap;html=1;movable=1;resizable=1;rotatable=1;deletable=1;editable=1;locked=0;connectable=1;" vertex="1" parent="I6KHFlvKt-9jvYjdkDqK-23">
          <mxGeometry x="7" y="6" width="75" height="30" as="geometry" />
        </mxCell>
        <mxCell id="I6KHFlvKt-9jvYjdkDqK-24" value="" style="group" vertex="1" connectable="0" parent="1">
          <mxGeometry x="165" y="160" width="82" height="36" as="geometry" />
        </mxCell>
        <mxCell id="I6KHFlvKt-9jvYjdkDqK-25" value="" style="rounded=1;whiteSpace=wrap;html=1;movable=1;resizable=1;rotatable=1;deletable=1;editable=1;locked=0;connectable=1;" vertex="1" parent="I6KHFlvKt-9jvYjdkDqK-24">
          <mxGeometry width="75" height="30" as="geometry" />
        </mxCell>
        <mxCell id="I6KHFlvKt-9jvYjdkDqK-26" value="" style="rounded=1;whiteSpace=wrap;html=1;movable=1;resizable=1;rotatable=1;deletable=1;editable=1;locked=0;connectable=1;" vertex="1" parent="I6KHFlvKt-9jvYjdkDqK-24">
          <mxGeometry x="3" y="3" width="75" height="30" as="geometry" />
        </mxCell>
        <mxCell id="I6KHFlvKt-9jvYjdkDqK-27" value="短暂的jobs" style="rounded=1;whiteSpace=wrap;html=1;movable=1;resizable=1;rotatable=1;deletable=1;editable=1;locked=0;connectable=1;fontStyle=1" vertex="1" parent="I6KHFlvKt-9jvYjdkDqK-24">
          <mxGeometry x="7" y="6" width="75" height="30" as="geometry" />
        </mxCell>
        <mxCell id="I6KHFlvKt-9jvYjdkDqK-33" value="&lt;div&gt;Prometheus&lt;/div&gt;&lt;div&gt;告警&lt;br&gt;&lt;/div&gt;" style="text;html=1;strokeColor=none;fillColor=none;align=center;verticalAlign=middle;whiteSpace=wrap;rounded=0;fontStyle=1" vertex="1" parent="1">
          <mxGeometry x="510" y="160" width="70" height="30" as="geometry" />
        </mxCell>
        <mxCell id="I6KHFlvKt-9jvYjdkDqK-34" value="邮件" style="rounded=1;whiteSpace=wrap;html=1;" vertex="1" parent="1">
          <mxGeometry x="690" y="164" width="80" height="37" as="geometry" />
        </mxCell>
        <mxCell id="I6KHFlvKt-9jvYjdkDqK-35" value="飞书" style="rounded=1;whiteSpace=wrap;html=1;" vertex="1" parent="1">
          <mxGeometry x="690" y="211" width="80" height="37" as="geometry" />
        </mxCell>
        <mxCell id="I6KHFlvKt-9jvYjdkDqK-36" value="Webhook" style="rounded=1;whiteSpace=wrap;html=1;" vertex="1" parent="1">
          <mxGeometry x="690" y="261" width="80" height="37" as="geometry" />
        </mxCell>
        <mxCell id="I6KHFlvKt-9jvYjdkDqK-41" style="edgeStyle=orthogonalEdgeStyle;rounded=0;orthogonalLoop=1;jettySize=auto;html=1;" edge="1" parent="1" source="I6KHFlvKt-9jvYjdkDqK-27" target="I6KHFlvKt-9jvYjdkDqK-8">
          <mxGeometry relative="1" as="geometry" />
        </mxCell>
        <mxCell id="I6KHFlvKt-9jvYjdkDqK-45" value="&lt;div&gt;在推出后&lt;/div&gt;&lt;div&gt;推送metrics&lt;/div&gt;" style="edgeLabel;html=1;align=center;verticalAlign=middle;resizable=0;points=[];fontStyle=1" vertex="1" connectable="0" parent="I6KHFlvKt-9jvYjdkDqK-41">
          <mxGeometry x="-0.1111" y="-1" relative="1" as="geometry">
            <mxPoint as="offset" />
          </mxGeometry>
        </mxCell>
      </root>
    </mxGraphModel>
  </diagram>
</mxfile>
